<svg width="384" height="512" viewBox="0 0 384 512" fill="none" xmlns="http://www.w3.org/2000/svg">
<path d="M378.94 321.41L284.7 224H333.92C349.22 224 357.58 207.4 347.78 196.47L234.45 69.96C237.88 63.35 240 55.96 240 48C240 21.49 218.51 0 192 0C165.49 0 144 21.49 144 48C144 55.96 146.12 63.35 149.55 69.96L36.22 196.47C26.42 207.4 34.78 224 50.08 224H99.3L5.06001 321.41C-6.68999 333.56 3.34001 352 21.7 352H160V384H48C39.16 384 32 391.16 32 400V496C32 504.84 39.16 512 48 512H336C344.84 512 352 504.84 352 496V400C352 391.16 344.84 384 336 384H224V352H362.3C380.66 352 390.69 333.56 378.94 321.41ZM192 31.98C200.85 31.98 208.02 39.15 208.02 48C208.02 56.84 200.85 64.02 192 64.02C183.15 64.02 175.98 56.84 175.98 48C175.98 39.15 183.15 31.98 192 31.98ZM304 432V464H80V432H304Z" fill="#0F437F"/>
</svg>
